inDegrees=no
num_controls=7
num_derivatives=13
num_iterations=110
num_multipliers=7
num_parameters=0
num_slacks=7
num_states=26
objective=4.122576
objective_accelerations=0.299813
objective_balance=0.054171
objective_effort=0.314699
objective_height=3.392261
objective_ligament=0.061632
solver_duration=1896.571918
status=Solve_Succeeded
success=true
DataType=double
version=3
OpenSimVersion=4.4-2022-07-23-0e9fedc
endheader
time	/jointset/ground_pelvis/pelvis_tilt/value	/jointset/ground_pelvis/pelvis_tx/value	/jointset/ground_pelvis/pelvis_ty/value	/jointset/hip_l/hip_flexion_l/value	/jointset/hip_l/hip_adduction_l/value	/jointset/hip_l/hip_rotation_l/value	/jointset/back/lumbar_extension/value	/jointset/patellofemoral_l/patellar_flexion_l/value	/jointset/knee_l/knee_flexion_l/value	/jointset/knee_l/knee_adduction_l/value	/jointset/knee_l/knee_rotation_l/value	/jointset/ankle_l/ankle_angle_l/value	/jointset/subtalar_l/subtalar_angle_l/value	/jointset/ground_pelvis/pelvis_tilt/speed	/jointset/ground_pelvis/pelvis_tx/speed	/jointset/ground_pelvis/pelvis_ty/speed	/jointset/hip_l/hip_flexion_l/speed	/jointset/hip_l/hip_adduction_l/speed	/jointset/hip_l/hip_rotation_l/speed	/jointset/back/lumbar_extension/speed	/jointset/patellofemoral_l/patellar_flexion_l/speed	/jointset/knee_l/knee_flexion_l/speed	/jointset/knee_l/knee_adduction_l/speed	/jointset/knee_l/knee_rotation_l/speed	/jointset/ankle_l/ankle_angle_l/speed	/jointset/subtalar_l/subtalar_angle_l/speed	/forceset/tau_hip_flexion_l	/forceset/tau_hip_adduction_l	/forceset/tau_hip_rotation_l	/forceset/tau_knee_flexion_l	/forceset/tau_ankle_angle_l	/forceset/tau_subtalar_angle_l	/forceset/tau_lumbar_extension	lambda_cid13_p0	lambda_cid13_p1	lambda_cid13_p2	lambda_cid13_p3	lambda_cid13_p4	lambda_cid13_p5	lambda_cid14_p0	/jointset/ground_pelvis/pelvis_tilt/accel	/jointset/ground_pelvis/pelvis_tx/accel	/jointset/ground_pelvis/pelvis_ty/accel	/jointset/hip_l/hip_flexion_l/accel	/jointset/hip_l/hip_adduction_l/accel	/jointset/hip_l/hip_rotation_l/accel	/jointset/back/lumbar_extension/accel	/jointset/patellofemoral_l/patellar_flexion_l/accel	/jointset/knee_l/knee_flexion_l/accel	/jointset/knee_l/knee_adduction_l/accel	/jointset/knee_l/knee_rotation_l/accel	/jointset/ankle_l/ankle_angle_l/accel	/jointset/subtalar_l/subtalar_angle_l/accel	gamma_cid13_p0	gamma_cid13_p1	gamma_cid13_p2	gamma_cid13_p3	gamma_cid13_p4	gamma_cid13_p5	gamma_cid14_p0
0.5	-0.3085077003869953	-0.01239154703949528	0.8096192589222403	0.9806339154389424	-0.305301507305447	-0.06798251054548084	-0.2981887931374446	0.6131407036894253	0.6131407036894622	-0.1721163686643499	0.1744300845657857	0.108609475825985	-0.02886737828083264	-0.3768123396812002	-0.149402845848818	-0.3303218522594242	1.632172085273777	-0.04276200250509268	0.5629346812741017	-0.6303712459828668	1.590065592251575	1.590065592252102	-0.008235629765386915	0.0006682250315132128	0.4279678548540158	0.02360198926671969	-0.1662922123055088	0.02248548887845845	-0.02425730617905074	-0.2203542052282215	0.09265703270601613	0.04040813874575647	0.1701286695528449	-9.044851929853531	-19.97344504162729	7.359855572780538	0.6747056594451343	-611.4585513606403	-63.76479323985072	-32.46616013407208	0.3207812074610614	0.3635324801244589	-0.2636348695118061	-0.9855450080242563	0.47748890230349	-0.2866070123629987	1.211629999462479	-0.9139844414320818	-0.9139844414321192	-0.02656797097096443	-0.02740139342857661	-0.2091862701113119	0.4501154991891488	-5.283908536615246e-08	-9.724563559365671e-07	3.447324991487799e-07	-9.001812318324107e-08	-1.069118627843535e-07	-4.138129438874777e-07	-1.317023290027102e-07
0.51	-0.3122591531711005	-0.01386721267398225	0.8063034950111388	0.9969037823746569	-0.3057059975806756	-0.06236901095633497	-0.304431343255301	0.6289934190136913	0.6289934190135625	-0.1722009164782044	0.1744365848697808	0.1128778086606808	-0.0286097181142517	-0.3734349754593663	-0.1457151164154104	-0.3327653673805346	1.621583272542853	-0.03814831283625521	0.5596895578652178	-0.618063068685027	1.580258897372953	1.580258897373057	-0.008668155770386366	0.0006317568905348343	0.4256325307607259	0.02791535340335902	-0.1717330005572432	0.02357861509791991	-0.02434919964834377	-0.2219233798730834	0.09059000372916994	0.04101713089924252	0.1746721436901101	-9.8334057689028	-20.02221921107722	7.278946628048981	0.9209151224162374	-614.2063488276162	-63.42793255286824	-31.64004193447397	0.3526916054250786	0.3736506174887195	-0.2248964951901169	-1.128263639134475	0.4515205301405097	-0.3549511946350849	1.251767930620534	-1.046772309231911	-1.046772309295485	-0.05085826281908331	0.008130499540278975	-0.2556464984688476	0.4198515544626368	-5.631889637056115e-08	-9.174778855406411e-07	3.456734661128468e-07	-8.255398327315561e-08	-1.036532553178248e-07	-3.922920288180023e-07	-1.280911275929856e-07
0.52	-0.3159755367978148	-0.0153055495256273	0.8029652586164702	1.013061218336345	-0.3060647086530203	-0.05679025983916305	-0.3105485403330498	0.6447415153295427	0.6447415153292491	-0.1722896422216262	0.174442700497161	0.1171208000505402	-0.02830934336959185	-0.3697985082023139	-0.1419370892804354	-0.3348163489728836	1.609685890471597	-0.03360616192876906	0.5559849868769771	-0.6053006379601514	1.569141790568142	1.569141790567822	-0.009071215677556988	0.0005912897084627735	0.4228995658861963	0.03214490488245703	-0.1771737888090656	0.02467174131744029	-0.02444109311768626	-0.2234925545179286	0.08852297475235736	0.0416261230528004	0.1792156178272657	-10.62969170344769	-20.07144993332258	7.200178603471388	1.174523720219274	-617.0832249874704	-63.13630441590383	-30.79473040100144	0.3726018145048032	0.3815920204379361	-0.1851281637595009	-1.247258876090609	0.4631811500332509	-0.3784965282342961	1.302480684869652	-1.176066826670092	-1.176066826670034	-0.02067475140516656	-0.02820120164738851	-0.2887144263593064	0.4333529676809126	-5.920843004378001e-08	-8.630592234655734e-07	3.469627371637871e-07	-7.506244375789414e-08	-1.004388469823317e-07	-3.706318071821172e-07	-1.243729074086897e-07
0.53	-0.3196543232603291	-0.01670569361653204	0.7996085004877914	1.0290932887517	-0.3063783343027112	-0.05125084280101402	-0.3165359219882609	0.6603719984852576	0.6603719984848269	-0.1723820806925604	0.1744483723774777	0.1213345294938563	-0.02796706367126935	-0.3659195963844128	-0.138080006635261	-0.3364670337096989	1.596519741394955	-0.02913205558928527	0.5518084696487715	-0.592109439963836	1.556746382761394	1.556746382761005	-0.009395127107296855	0.0005541653744956604	0.4197844189293915	0.0362961814784042	-0.1824656031146154	0.02557321198161475	-0.02456507498480685	-0.2251406040670198	0.08661014372893865	0.04218334072421667	0.1836281104142487	-11.37560185018054	-20.10757629022501	7.11996175655928	1.408039842395993	-619.9205257157855	-62.85207202209992	-29.93361428706404	0.4014047950542921	0.3895105008031222	-0.1448219207450896	-1.382571066660176	0.4375982631521619	-0.4508476875159529	1.337377324895243	-1.30252194589753	-1.302521945907892	-0.03515997996605771	0.01010897522410414	-0.3322133161955244	0.4038778086910982	-9.222434950935585e-08	-7.529403029079711e-07	4.976698661321285e-07	-4.104077412277637e-08	-1.19526445121819e-07	-3.523131295325068e-07	-1.38647269917276e-07
